<!-- Generated by IcoMoon.io -->
<svg version="1.1" xmlns="http://www.w3.org/2000/svg" width="64" height="64" viewBox="-4 -4 68 68">
    <title>heart</title>
    <path fill="#f44336" d="M46 4c-4.808 0-8.662 1.726-12.060 5.126-0.002 0.002-0.004 0.004-0.006 0.006h-0.002l-1.932 2.434-1.932-2.286c-0.002-0.002-0.004-0.004-0.006-0.006h-0.002c-3.4-3.402-7.252-5.274-12.060-5.274s-9.328 1.872-12.728 5.272c-3.398 3.4-5.272 7.92-5.272 12.728 0 4.804 1.87 9.324 5.266 12.722l23.894 24.094c0.75 0.758 1.774 1.184 2.84 1.184s2.090-0.426 2.84-1.184l23.892-24.094c3.396-3.398 5.268-7.916 5.268-12.722 0-4.808-1.874-9.328-5.272-12.728-3.4-3.4-7.92-5.272-12.728-5.272v0z"></path>
</svg>