<!-- Generated by IcoMoon.io -->
<svg version="1.1" xmlns="http://www.w3.org/2000/svg" width="64" height="64" viewBox="0 0 64 64">
<title>menu</title>
    <path fill="#f44336" d="M16 39v6c0 1.656-1.344 3-3 3h-10c-1.656 0-3-1.344-3-3v-6c0-1.656 1.344-3 3-3h10c1.656 0 3 1.344 3 3zM16 23v6c0 1.656-1.344 3-3 3h-10c-1.656 0-3-1.344-3-3v-6c0-1.656 1.344-3 3-3h10c1.656 0 3 1.344 3 3zM56 39v6c0 1.656-1.344 3-3 3h-30c-1.656 0-3-1.344-3-3v-6c0-1.656 1.344-3 3-3h30c1.656 0 3 1.344 3 3zM16 7v6c0 1.656-1.344 3-3 3h-10c-1.656 0-3-1.344-3-3v-6c0-1.656 1.344-3 3-3h10c1.656 0 3 1.344 3 3zM56 23v6c0 1.656-1.344 3-3 3h-30c-1.656 0-3-1.344-3-3v-6c0-1.656 1.344-3 3-3h30c1.656 0 3 1.344 3 3zM56 7v6c0 1.656-1.344 3-3 3h-30c-1.656 0-3-1.344-3-3v-6c0-1.656 1.344-3 3-3h30c1.656 0 3 1.344 3 3z"></path>
</svg>
