<!-- Generated by IcoMoon.io -->
<svg version="1.1" xmlns="http://www.w3.org/2000/svg" width="48" height="56" viewBox="0 0 48 56">
<title>cog</title>
<path fill="#f44336" d="M32 28c0-4.406-3.594-8-8-8s-8 3.594-8 8 3.594 8 8 8 8-3.594 8-8zM48 24.594v6.937c0 0.469-0.375 1.031-0.875 1.125l-5.781 0.875c-0.344 1-0.719 1.938-1.219 2.844 1.063 1.531 2.188 2.906 3.344 4.312 0.188 0.219 0.312 0.5 0.312 0.781s-0.094 0.5-0.281 0.719c-0.75 1-4.969 5.594-6.031 5.594-0.281 0-0.563-0.125-0.812-0.281l-4.312-3.375c-0.906 0.469-1.875 0.875-2.844 1.187-0.219 1.906-0.406 3.938-0.906 5.813-0.125 0.5-0.563 0.875-1.125 0.875h-6.937c-0.563 0-1.063-0.406-1.125-0.938l-0.875-5.75c-0.969-0.312-1.906-0.687-2.813-1.156l-4.406 3.344c-0.219 0.188-0.5 0.281-0.781 0.281s-0.563-0.125-0.781-0.344c-1.656-1.5-3.844-3.437-5.156-5.25-0.156-0.219-0.219-0.469-0.219-0.719 0-0.281 0.094-0.5 0.25-0.719 1.063-1.438 2.219-2.813 3.281-4.281-0.531-1-0.969-2.031-1.281-3.094l-5.719-0.844c-0.531-0.094-0.906-0.594-0.906-1.125v-6.937c0-0.469 0.375-1.031 0.844-1.125l5.813-0.875c0.312-1 0.719-1.938 1.219-2.875-1.063-1.5-2.188-2.906-3.344-4.312-0.188-0.219-0.312-0.469-0.312-0.75s0.125-0.5 0.281-0.719c0.75-1.031 4.969-5.594 6.031-5.594 0.281 0 0.563 0.125 0.812 0.312l4.312 3.344c0.906-0.469 1.875-0.875 2.844-1.187 0.219-1.906 0.406-3.937 0.906-5.813 0.125-0.5 0.563-0.875 1.125-0.875h6.937c0.563 0 1.063 0.406 1.125 0.938l0.875 5.75c0.969 0.312 1.906 0.687 2.813 1.156l4.438-3.344c0.188-0.188 0.469-0.281 0.75-0.281s0.563 0.125 0.781 0.312c1.656 1.531 3.844 3.469 5.156 5.313 0.156 0.188 0.219 0.438 0.219 0.687 0 0.281-0.094 0.5-0.25 0.719-1.063 1.438-2.219 2.813-3.281 4.281 0.531 1 0.969 2.031 1.281 3.063l5.719 0.875c0.531 0.094 0.906 0.594 0.906 1.125z"></path>
</svg>
