<!-- Generated by IcoMoon.io -->
<svg version="1.1" xmlns="http://www.w3.org/2000/svg" width="768" height="768" viewBox="0 0 768 768">
<title>star-outline</title>
<g id="icomoon-ignore">
</g>
<path fill="#f44336" d="M583.365 752.177c-9.198 0-18.191-2.053-26.527-5.995-1.437-0.575-2.834-1.274-4.271-2.094l-168.649-96.212-168.649 96.254c-1.437 0.821-2.875 1.519-4.353 2.176-20.038 9.362-44.554 7.145-62.458-5.872-19.259-13.962-28.785-38.312-24.064-61.965l39.298-190.618c-15.358-13.962-39.503-35.93-65.784-59.83l-77.816-70.835c-1.109-1.027-2.259-2.176-3.203-3.368-15.399-16.262-20.901-39.833-13.962-61.267 7.104-21.517 25.459-37.451 47.634-41.434 1.396-0.328 2.752-0.575 4.189-0.739l193.041-21.394 79.91-176.984c0.697-1.56 1.478-3.079 2.464-4.517 10.759-19.423 31.373-31.66 53.752-31.66 22.298 0 42.871 12.237 53.753 31.619 0.862 1.478 1.683 2.998 2.464 4.6l79.993 177.067 193.041 21.394c1.397 0.123 2.792 0.37 4.271 0.698 22.133 4.107 40.489 19.957 47.552 41.557 6.98 21.394 1.437 45.088-13.962 61.349-0.986 1.067-2.094 2.218-3.203 3.203l-143.641 130.747 39.298 190.208c4.64 24.104-4.846 48.373-24.227 62.376-10.348 7.473-22.832 11.539-35.89 11.539zM248.736 482.635c-1.601 7.473-19.136 92.229-34.699 167.622l149.596-85.29c12.607-7.187 28.088-7.187 40.653 0l149.596 85.207-34.863-168.526c-2.915-14.209 1.848-28.95 12.647-38.682l127.298-115.882-171.154-18.93c-14.413-1.601-26.856-10.676-32.892-23.981l-70.958-156.904-70.877 156.904c-5.995 13.222-18.478 22.298-32.892 23.981l-171.154 18.93 127.298 115.882c11.169 10.102 15.769 25.336 12.401 39.668z"></path>
</svg>
