<!-- Generated by IcoMoon.io -->
<svg version="1.1" xmlns="http://www.w3.org/2000/svg" width="768" height="768" viewBox="0 0 768 768">
<title>star-outline</title>
<g id="icomoon-ignore">
</g>
<path fill="#f44336" d="M262.493 253.098c0 0-145.551 16.119-242.648 26.899-8.752 1.061-16.491 6.91-19.394 15.801s0 18.147 6.449 23.995c72.131 65.82 180.512 164.392 180.512 164.392-0.090 0-29.755 143.385-49.467 239.055-1.656 8.657 1.475 17.823 9.029 23.305 7.51 5.482 17.181 5.573 24.781 1.29 84.937-48.273 212.156-120.865 212.156-120.865s127.266 72.592 212.060 120.908c7.739 4.235 17.409 4.145 24.919-1.337 7.553-5.482 10.684-14.649 8.981-23.264-19.712-95.712-49.329-239.103-49.329-239.103s108.382-98.568 180.512-164.249c6.448-6.035 9.304-15.291 6.448-24.134s-10.594-14.692-19.346-15.705c-97.097-10.87-242.696-26.99-242.696-26.99s-60.337-133.481-100.552-222.474c-3.779-7.966-11.698-13.54-21.002-13.54s-17.271 5.62-20.864 13.54c-40.258 88.988-100.552 222.474-100.552 222.474z"></path>
</svg>
